<svg version="1.1" id="Layer_1" xmlns="http://www.w3.org/2000/svg" xmlns:xlink="http://www.w3.org/1999/xlink" x="0px" y="0px"
	 width="100%" viewBox="0 0 128 128" enable-background="new 0 0 128 128" xml:space="preserve">
<path fill="#000000" opacity="1.000000" stroke="none" 
	d="
M67.000000,129.000000 
	C44.666668,129.000000 22.833334,129.000000 1.000000,129.000000 
	C1.000000,86.333336 1.000000,43.666668 1.000000,1.000000 
	C43.666668,1.000000 86.333336,1.000000 129.000000,1.000000 
	C129.000000,43.666668 129.000000,86.333336 129.000000,129.000000 
	C108.500000,129.000000 88.000000,129.000000 67.000000,129.000000 
M85.004303,23.156427 
	C83.350487,22.008089 81.696663,20.859751 80.130569,18.897310 
	C79.892570,15.579463 79.919052,12.209394 79.279579,8.970824 
	C79.041298,7.764060 77.246452,6.864648 75.709900,5.168346 
	C68.737518,5.101527 61.765141,5.034708 54.064297,5.072335 
	C53.057037,6.911945 51.507877,8.657414 51.168148,10.612989 
	C50.644321,13.628289 50.949020,16.787523 50.143341,19.963245 
	C48.583679,20.666733 46.299973,20.942112 45.587753,22.146667 
	C42.228256,27.828466 38.514130,33.497429 36.410114,39.676186 
	C33.616886,47.878910 32.199871,56.550274 30.060240,65.662300 
	C30.017471,66.096741 29.974701,66.531174 29.228209,67.430016 
	C28.873970,72.621437 28.519732,77.812851 28.058294,83.511086 
	C28.095362,83.679733 28.132429,83.848389 28.029982,84.859734 
	C28.088102,86.563896 28.146223,88.268051 28.069277,90.730133 
	C28.111101,91.496223 28.152927,92.262321 28.037361,93.878281 
	C27.695005,99.908508 27.226122,105.936340 27.112303,111.970879 
	C27.088251,113.245964 28.363869,114.545547 29.567553,116.091362 
	C30.056229,116.340233 30.544905,116.589096 31.678703,117.169052 
	C39.375435,122.030655 48.026894,123.397125 57.289845,124.750366 
	C72.553619,126.706108 86.671219,123.011139 100.827103,116.005371 
	C101.498138,114.999763 102.169174,113.994156 102.985893,112.066948 
	C102.603867,106.046745 102.221840,100.026550 101.985222,93.080902 
	C101.263741,83.694115 100.542259,74.307335 99.958565,64.110008 
	C97.334343,55.045738 94.710121,45.981468 91.993385,36.174660 
	C89.678864,32.072613 87.364342,27.970564 85.004303,23.156427 
z"/>
<path fill="#D1B932" opacity="1.000000" stroke="none" 
	d="
M56.872982,124.051071 
	C48.026894,123.397125 39.375435,122.030655 31.647686,116.785339 
	C33.076576,116.264946 34.536480,116.128265 36.370110,115.996521 
	C37.490601,115.996674 38.237370,115.991875 39.240257,115.871902 
	C39.997688,115.503654 40.498993,115.250572 41.297222,115.238663 
	C48.569111,116.647034 51.830105,114.441696 50.836948,108.166382 
	C49.741871,101.247093 49.662056,94.617554 52.354263,88.016876 
	C53.185478,88.079018 53.659286,88.129738 54.131989,88.522179 
	C56.455143,90.777054 58.779411,92.690201 60.885521,94.898499 
	C57.393494,97.237495 56.221901,100.016693 57.872128,103.647614 
	C61.696709,112.062691 66.556053,118.883713 77.512390,116.016235 
	C77.978935,115.894142 78.506172,116.003990 78.911758,116.337784 
	C72.115471,120.950424 65.514313,125.533585 56.872982,124.051071 
z"/>
<path fill="#C1A625" opacity="1.000000" stroke="none" 
	d="
M35.996387,115.991577 
	C34.536480,116.128265 33.076576,116.264946 31.325125,116.619797 
	C30.544905,116.589096 30.056229,116.340233 29.409451,115.689896 
	C29.732405,113.780945 30.293226,112.293419 30.676411,110.761459 
	C31.300962,108.264519 32.618893,105.585205 32.178391,103.260628 
	C31.508444,99.725212 29.585516,96.427231 28.194754,93.028412 
	C28.152927,92.262321 28.111101,91.496223 28.401279,90.154907 
	C28.545355,87.725471 28.357426,85.871254 28.169497,84.017036 
	C28.132429,83.848389 28.095362,83.679733 28.448280,83.126831 
	C31.587311,77.648880 31.179026,72.336319 29.931934,66.965614 
	C29.974701,66.531174 30.017471,66.096741 30.464777,65.196899 
	C32.609253,61.167385 31.784151,56.374142 36.241581,54.283440 
	C36.608784,63.886658 36.751961,73.236946 33.990742,82.266808 
	C30.854683,92.522484 34.796177,102.411232 35.278858,112.473381 
	C35.304535,113.008575 36.404514,113.492218 37.004070,114.250092 
	C37.004032,114.667168 37.004307,114.833992 36.804031,115.130653 
	C36.352119,115.463493 36.149754,115.707184 35.996387,115.991577 
z"/>
<path fill="#934C1D" opacity="1.000000" stroke="none" 
	d="
M76.161385,5.825086 
	C77.246452,6.864648 79.041298,7.764060 79.279579,8.970824 
	C79.919052,12.209394 79.892570,15.579463 79.699265,19.297504 
	C77.523560,20.130110 75.779160,20.562523 73.638168,20.958927 
	C71.205307,21.333414 69.169044,21.743906 66.782867,22.203819 
	C64.644020,22.141716 62.855091,22.030191 61.032356,21.668964 
	C60.986679,21.251694 60.974815,21.084127 61.260170,20.690132 
	C63.243118,20.078972 64.928848,19.694239 66.911079,19.241838 
	C65.896202,16.689535 63.909988,14.210204 64.399933,12.401710 
	C65.413025,8.662222 63.588490,7.345129 61.255688,5.984273 
	C61.501781,5.981972 61.993771,5.996757 62.405125,5.998945 
	C64.178391,5.996974 65.540298,5.992815 67.272125,6.134897 
	C70.481827,6.129120 73.321609,5.977102 76.161385,5.825086 
z"/>
<path fill="#7F3F1C" opacity="1.000000" stroke="none" 
	d="
M61.009594,5.986574 
	C63.588490,7.345129 65.413025,8.662222 64.399933,12.401710 
	C63.909988,14.210204 65.896202,16.689535 66.911079,19.241838 
	C64.928848,19.694239 63.243118,20.078972 60.851913,20.683804 
	C59.060646,20.807213 57.974846,20.710522 56.631302,20.449821 
	C55.552120,20.211285 54.730694,20.136759 53.532017,20.067703 
	C52.403938,20.010685 51.653103,19.948193 50.902271,19.885702 
	C50.949020,16.787523 50.644321,13.628289 51.168148,10.612989 
	C51.507877,8.657414 53.057037,6.911945 54.833199,5.051521 
	C57.404602,5.349329 59.207096,5.667952 61.009594,5.986574 
z"/>
<path fill="#B89F29" opacity="1.000000" stroke="none" 
	d="
M50.522804,19.924473 
	C51.653103,19.948193 52.403938,20.010685 53.569389,20.265799 
	C53.984009,20.458422 54.023464,20.860369 53.665440,20.913872 
	C50.222092,24.199621 46.069443,26.933828 44.279194,30.770393 
	C40.819042,38.185623 38.691082,46.222492 36.010895,54.001678 
	C31.784151,56.374142 32.609253,61.167385 30.530420,64.875885 
	C32.199871,56.550274 33.616886,47.878910 36.410114,39.676186 
	C38.514130,33.497429 42.228256,27.828466 45.587753,22.146667 
	C46.299973,20.942112 48.583679,20.666733 50.522804,19.924473 
z"/>
<path fill="#CAB632" opacity="1.000000" stroke="none" 
	d="
M57.081413,124.400719 
	C65.514313,125.533585 72.115471,120.950424 79.243759,116.336685 
	C80.111946,116.002518 80.554756,116.001457 81.380264,115.985382 
	C83.609146,115.357155 85.425056,114.613441 87.311974,114.176018 
	C88.597534,113.877998 90.028419,113.760597 91.313217,113.999184 
	C93.925720,114.484322 96.483322,115.265137 99.331345,115.946350 
	C99.775620,115.999428 99.952087,116.030251 100.128563,116.061081 
	C86.671219,123.011139 72.553619,126.706108 57.081413,124.400719 
z"/>
<path fill="#FCEE3F" opacity="1.000000" stroke="none" 
	d="
M92.085907,36.917194 
	C94.710121,45.981468 97.334343,55.045738 99.598923,64.599815 
	C98.808105,65.716362 98.376938,66.343102 97.602341,66.877426 
	C96.495758,65.253777 95.615074,63.768715 94.991966,62.182468 
	C93.274734,57.810921 91.665321,53.397030 90.007401,48.669090 
	C89.995659,47.897205 89.989769,47.456112 89.949631,46.722565 
	C89.599838,45.952721 89.284286,45.475342 88.969482,44.669735 
	C88.970497,43.903870 88.970757,43.466232 88.983643,42.597450 
	C88.988617,40.444859 88.980965,38.723408 89.363083,37.000610 
	C90.530533,36.971912 91.308220,36.944553 92.085907,36.917194 
z"/>
<path fill="#F7D934" opacity="1.000000" stroke="none" 
	d="
M101.839813,94.006348 
	C102.221840,100.026550 102.603867,106.046745 102.540009,112.495926 
	C101.059753,110.281525 100.025383,107.638130 98.991562,104.556610 
	C98.668884,97.721909 98.345650,91.325325 98.362900,85.048843 
	C99.748856,88.114738 100.794334,91.060539 101.839813,94.006348 
z"/>
<path fill="#BA9F24" opacity="1.000000" stroke="none" 
	d="
M28.116058,93.453346 
	C29.585516,96.427231 31.508444,99.725212 32.178391,103.260628 
	C32.618893,105.585205 31.300962,108.264519 30.676411,110.761459 
	C30.293226,112.293419 29.732405,113.780945 29.146004,115.561142 
	C28.363869,114.545547 27.088251,113.245964 27.112303,111.970879 
	C27.226122,105.936340 27.695005,99.908508 28.116058,93.453346 
z"/>
<path fill="#FCC216" opacity="1.000000" stroke="none" 
	d="
M101.912521,93.543625 
	C100.794334,91.060539 99.748856,88.114738 98.366852,84.737259 
	C98.031357,83.888176 98.032394,83.470779 98.213699,82.874176 
	C98.267410,82.115227 98.140862,81.535477 98.013489,80.562653 
	C97.982330,79.121933 97.951996,78.074280 97.937317,76.569832 
	C97.950577,73.065300 97.948166,70.017563 97.945770,66.969833 
	C98.376938,66.343102 98.808105,65.716362 99.530029,65.005081 
	C100.542259,74.307335 101.263741,83.694115 101.912521,93.543625 
z"/>
<path fill="#FBE528" opacity="1.000000" stroke="none" 
	d="
M92.039642,36.545929 
	C91.308220,36.944553 90.530533,36.971912 89.031914,36.896805 
	C87.203781,34.197666 86.096588,31.600988 84.991180,28.602413 
	C84.980667,27.128218 84.968369,26.055922 84.973648,24.704353 
	C85.010757,24.239561 85.030289,24.054037 85.049820,23.868515 
	C87.364342,27.970564 89.678864,32.072613 92.039642,36.545929 
z"/>
<path fill="#FAF452" opacity="1.000000" stroke="none" 
	d="
M85.027061,23.512470 
	C85.030289,24.054037 85.010757,24.239561 84.577728,24.711185 
	C80.861809,24.251720 77.551643,23.536169 74.274902,22.691055 
	C74.063126,22.636435 74.108826,21.583485 74.034760,20.994934 
	C75.779160,20.562523 77.523560,20.130110 79.655403,19.704556 
	C81.696663,20.859751 83.350487,22.008089 85.027061,23.512470 
z"/>
<path fill="#70564A" opacity="1.000000" stroke="none" 
	d="
M61.255688,5.984273 
	C59.207096,5.667952 57.404602,5.349329 55.197433,4.999298 
	C61.765141,5.034708 68.737518,5.101527 75.935638,5.496716 
	C73.321609,5.977102 70.481827,6.129120 67.029404,5.906368 
	C64.942429,5.686651 63.468102,5.841704 61.993771,5.996757 
	C61.993771,5.996757 61.501781,5.981972 61.255688,5.984273 
z"/>
<path fill="#B89F29" opacity="1.000000" stroke="none" 
	d="
M29.580070,67.197815 
	C31.179026,72.336319 31.587311,77.648880 28.501881,82.873421 
	C28.519732,77.812851 28.873970,72.621437 29.580070,67.197815 
z"/>
<path fill="#F6D32F" opacity="1.000000" stroke="none" 
	d="
M98.991013,104.994743 
	C100.025383,107.638130 101.059753,110.281525 102.467163,112.956726 
	C102.169174,113.994156 101.498138,114.999763 100.477829,116.033226 
	C99.952087,116.030251 99.775620,115.999428 99.297867,115.725677 
	C98.996590,115.482750 98.956161,115.036934 98.903412,114.636490 
	C98.897446,111.155609 98.944229,108.075180 98.991013,104.994743 
z"/>
<path fill="#BA9F24" opacity="1.000000" stroke="none" 
	d="
M28.099739,84.438385 
	C28.357426,85.871254 28.545355,87.725471 28.468815,89.775955 
	C28.146223,88.268051 28.088102,86.563896 28.099739,84.438385 
z"/>
<path fill="#D6C033" opacity="1.000000" stroke="none" 
	d="
M80.997559,116.000397 
	C80.554756,116.001457 80.111946,116.002518 79.337143,116.004684 
	C78.506172,116.003990 77.978935,115.894142 77.512390,116.016235 
	C66.556053,118.883713 61.696709,112.062691 57.872128,103.647614 
	C56.221901,100.016693 57.393494,97.237495 61.254372,94.857498 
	C62.560001,94.664398 63.278622,94.807457 64.092072,95.085098 
	C64.186905,95.219666 64.632622,95.309349 64.632622,95.309349 
	C64.632622,95.309349 64.997169,95.004333 65.369514,94.880676 
	C70.067657,94.042030 74.667397,93.750290 76.216034,88.196472 
	C78.376785,88.127846 80.187599,88.066765 82.013840,88.383255 
	C82.876587,90.888702 83.863075,92.973053 84.544830,95.152718 
	C86.502792,101.412506 89.232765,107.798050 82.042755,112.865013 
	C81.317848,113.375877 81.328346,114.930283 80.997559,116.000397 
z"/>
<path fill="#D3BB30" opacity="1.000000" stroke="none" 
	d="
M54.133099,88.180450 
	C53.659286,88.129738 53.185478,88.079018 52.161667,87.775177 
	C50.973919,86.071190 50.336170,84.620316 49.745461,83.276466 
	C48.450275,84.155457 47.326668,84.917999 46.203056,85.680550 
	C46.198284,84.245239 46.193512,82.809937 46.535004,81.340515 
	C48.222431,80.387253 50.828728,78.932663 50.702553,78.634544 
	C49.778496,76.451195 48.306744,74.499657 47.007412,72.160812 
	C47.007084,70.289993 47.007084,68.733360 47.007084,66.048431 
	C44.214725,64.238312 43.685429,60.534725 45.071922,56.187233 
	C45.824482,53.827511 46.367844,51.401073 47.355743,48.941940 
	C48.888767,47.473408 50.220085,46.164787 51.218597,44.638447 
	C52.610020,42.511509 53.752480,40.221706 55.201408,38.133217 
	C55.651775,38.470284 55.852501,38.716301 55.844467,39.359615 
	C54.790199,46.085159 54.439655,52.593323 52.855495,58.785904 
	C51.061699,65.797966 59.840805,69.712166 57.364185,76.663696 
	C57.238609,77.016182 58.606983,78.391487 59.386532,78.496277 
	C64.468025,79.179306 65.666832,82.717094 65.799316,87.131752 
	C65.349068,87.468987 65.148537,87.715096 64.566208,88.001686 
	C62.692165,88.085106 61.249790,88.168678 59.857357,88.284241 
	C59.907303,88.316238 59.831814,88.407745 59.680538,88.101166 
	C57.624653,86.735374 55.666821,84.955688 54.082634,88.160141 
	C54.085365,88.123169 54.133099,88.180450 54.133099,88.180450 
M53.464924,82.494598 
	C53.464924,82.494598 53.514008,82.474052 53.464924,82.494598 
z"/>
<path fill="#CEB52B" opacity="1.000000" stroke="none" 
	d="
M46.188740,81.374626 
	C46.193512,82.809937 46.198284,84.245239 46.203056,85.680550 
	C47.326668,84.917999 48.450275,84.155457 49.745461,83.276466 
	C50.336170,84.620316 50.973919,86.071190 51.804264,87.763748 
	C49.662056,94.617554 49.741871,101.247093 50.836948,108.166382 
	C51.830105,114.441696 48.569111,116.647034 41.447350,114.923592 
	C42.610439,111.729530 45.290592,109.369827 42.998795,105.563316 
	C42.998753,103.083504 42.998535,101.041351 42.939518,98.652176 
	C41.632809,96.058784 39.522598,93.876907 39.348530,91.550179 
	C39.114708,88.424713 40.376289,85.187370 40.996326,81.747681 
	C40.997593,81.330383 40.998470,81.163467 41.447025,80.990417 
	C42.790478,80.934090 43.686249,80.883896 44.802185,80.808182 
	C45.411140,80.979980 45.799942,81.177299 46.188740,81.374626 
M48.886375,88.647339 
	C48.946842,88.544785 49.007313,88.442223 49.067780,88.339668 
	C48.975231,88.382446 48.882683,88.425217 48.886375,88.647339 
z"/>
<path fill="#181409" opacity="1.000000" stroke="none" 
	d="
M75.866104,88.204018 
	C74.667397,93.750290 70.067657,94.042030 65.123138,94.800667 
	C64.335358,94.879723 64.166306,94.915123 63.997246,94.950523 
	C63.278622,94.807457 62.560001,94.664398 61.472530,94.562340 
	C58.779411,92.690201 56.455143,90.777054 54.131989,88.522179 
	C54.133099,88.180450 54.085365,88.123169 54.494156,88.116699 
	C56.545902,88.209404 58.188858,88.308571 59.831814,88.407745 
	C59.831814,88.407745 59.907303,88.316238 60.083641,88.511635 
	C61.869823,88.960526 63.479660,89.214012 65.510773,89.472397 
	C69.266998,89.052490 72.601952,88.627686 75.918861,88.169662 
	C75.900810,88.136436 75.866104,88.204018 75.866104,88.204018 
z"/>
<path fill="#CBB22B" opacity="1.000000" stroke="none" 
	d="
M42.998627,106.000969 
	C45.290592,109.369827 42.610439,111.729530 41.150421,114.682419 
	C40.498993,115.250572 39.997688,115.503654 39.048332,115.659988 
	C38.068375,115.375778 37.536476,115.188301 37.004578,115.000824 
	C37.004307,114.833992 37.004032,114.667168 37.339146,114.155197 
	C39.449226,111.207024 41.223927,108.603996 42.998627,106.000969 
z"/>
<path fill="#CAAD26" opacity="1.000000" stroke="none" 
	d="
M36.804031,115.130661 
	C37.536476,115.188301 38.068375,115.375778 38.792206,115.775162 
	C38.237370,115.991875 37.490601,115.996674 36.370110,115.996521 
	C36.149754,115.707184 36.352119,115.463493 36.804031,115.130661 
z"/>
<path fill="#CAAD26" opacity="1.000000" stroke="none" 
	d="
M42.998795,105.563316 
	C41.223927,108.603996 39.449226,111.207024 37.339455,113.904953 
	C36.404514,113.492218 35.304535,113.008575 35.278858,112.473381 
	C34.796177,102.411232 30.854683,92.522484 33.990742,82.266808 
	C36.751961,73.236946 36.608784,63.886658 36.241585,54.283440 
	C38.691082,46.222492 40.819042,38.185623 44.279194,30.770393 
	C46.069443,26.933828 50.222092,24.199621 54.029297,20.920103 
	C55.463802,20.786499 56.176426,20.700165 56.889050,20.613831 
	C57.974846,20.710522 59.060646,20.807213 60.554695,20.910233 
	C60.974815,21.084127 60.986679,21.251694 60.689358,21.700052 
	C59.921516,22.008547 59.462860,22.036249 58.675980,22.190510 
	C52.154881,23.858421 48.787983,27.703861 48.154438,34.158722 
	C47.666599,39.129082 46.732891,44.055676 45.758522,49.257950 
	C41.411732,57.701527 39.170193,66.136436 42.101204,75.455780 
	C42.097511,75.653625 41.915283,76.004929 41.597507,76.101265 
	C41.186272,77.797249 41.092808,79.396896 40.999348,80.996544 
	C40.998470,81.163467 40.997593,81.330383 40.658321,81.834122 
	C33.403389,89.057762 34.427612,95.492897 42.998322,98.999191 
	C42.998535,101.041351 42.998753,103.083504 42.998795,105.563316 
z"/>
<path fill="#DEB925" opacity="1.000000" stroke="none" 
	d="
M59.004208,22.063951 
	C59.462860,22.036249 59.921516,22.008547 60.723167,21.949753 
	C62.855091,22.030191 64.644020,22.141716 66.981522,22.500948 
	C71.038399,24.134367 74.546722,25.520081 78.021866,27.272968 
	C74.547279,33.838909 64.171181,38.466499 57.014496,36.628227 
	C57.686378,31.525547 58.345291,26.794748 59.004208,22.063951 
z"/>
<path fill="#F9DE36" opacity="1.000000" stroke="none" 
	d="
M78.055038,26.905792 
	C74.546722,25.520081 71.038399,24.134367 67.331436,22.451527 
	C69.169044,21.743906 71.205307,21.333414 73.638168,20.958927 
	C74.108826,21.583485 74.063126,22.636435 74.274902,22.691055 
	C77.551643,23.536169 80.861809,24.251720 84.560143,24.990456 
	C84.968369,26.055922 84.980667,27.128218 84.651833,28.603283 
	C83.857986,29.011284 83.405266,29.016520 82.661423,28.847332 
	C80.931877,28.083870 79.493462,27.494831 78.055038,26.905792 
z"/>
<path fill="#7F3F1C" opacity="1.000000" stroke="none" 
	d="
M62.405125,5.998945 
	C63.468102,5.841704 64.942429,5.686651 66.659485,5.760127 
	C65.540298,5.992815 64.178391,5.996974 62.405125,5.998945 
z"/>
<path fill="#934C1D" opacity="1.000000" stroke="none" 
	d="
M56.631302,20.449821 
	C56.176426,20.700165 55.463802,20.786499 54.387321,20.866600 
	C54.023464,20.860369 53.984009,20.458422 53.946636,20.260326 
	C54.730694,20.136759 55.552120,20.211285 56.631302,20.449821 
z"/>
<path fill="#D3BA2D" opacity="1.000000" stroke="none" 
	d="
M81.380264,115.985382 
	C81.328346,114.930283 81.317848,113.375877 82.042755,112.865013 
	C89.232765,107.798050 86.502792,101.412506 84.544830,95.152718 
	C83.863075,92.973053 82.876587,90.888702 82.014320,87.982620 
	C82.002266,86.136650 82.005157,85.068878 82.378014,84.024498 
	C84.152313,86.480446 85.362686,89.057953 87.032387,91.292206 
	C88.064514,92.673309 89.795593,93.532074 91.212898,94.625328 
	C91.728195,93.039162 92.323425,91.473549 92.738152,89.861511 
	C93.234940,87.930519 93.577637,85.959885 94.238724,84.327835 
	C94.328575,90.007332 93.392448,95.490166 94.229881,100.687218 
	C95.015610,105.563431 92.474693,111.936905 98.956161,115.036934 
	C98.956161,115.036934 98.996590,115.482750 99.030067,115.703430 
	C96.483322,115.265137 93.925720,114.484322 91.313217,113.999184 
	C90.028419,113.760597 88.597534,113.877998 87.311974,114.176018 
	C85.425056,114.613441 83.609146,115.357155 81.380264,115.985382 
z"/>
<path fill="#E5CB32" opacity="1.000000" stroke="none" 
	d="
M98.903412,114.636490 
	C92.474693,111.936905 95.015610,105.563431 94.229881,100.687218 
	C93.392448,95.490166 94.328575,90.007332 94.232971,83.978874 
	C93.645645,82.208122 93.315735,81.107750 92.991226,79.584793 
	C92.659561,76.110207 92.322479,73.058205 91.924103,69.621155 
	C88.916428,57.150578 85.970055,45.065048 83.366127,33.085678 
	C84.470932,34.938065 85.131241,36.738701 86.024986,38.414867 
	C86.880875,40.020027 87.979225,41.495899 88.971016,43.028595 
	C88.970757,43.466232 88.970497,43.903870 88.795967,44.863419 
	C89.075760,45.928558 89.529823,46.471790 89.983887,47.015022 
	C89.989769,47.456112 89.995659,47.897205 89.776001,48.929272 
	C91.597466,58.088299 93.602623,66.666946 95.765129,75.205742 
	C95.952904,75.947197 97.178261,76.425888 97.921661,77.026634 
	C97.951996,78.074280 97.982330,79.121933 97.827126,80.739594 
	C97.772202,81.890862 97.902817,82.472122 98.033432,83.053375 
	C98.032394,83.470779 98.031357,83.888176 98.026375,84.617165 
	C98.345650,91.325325 98.668884,97.721909 98.991562,104.556610 
	C98.944229,108.075180 98.897446,111.155609 98.903412,114.636490 
z"/>
<path fill="#F7D934" opacity="1.000000" stroke="none" 
	d="
M97.937317,76.569832 
	C97.178261,76.425888 95.952904,75.947197 95.765129,75.205742 
	C93.602623,66.666946 91.597466,58.088299 89.781860,49.260071 
	C91.665321,53.397030 93.274734,57.810921 94.991966,62.182468 
	C95.615074,63.768715 96.495758,65.253777 97.602341,66.877426 
	C97.948166,70.017563 97.950577,73.065300 97.937317,76.569832 
z"/>
<path fill="#F7D934" opacity="1.000000" stroke="none" 
	d="
M88.983643,42.597450 
	C87.979225,41.495899 86.880875,40.020027 86.024986,38.414867 
	C85.131241,36.738701 84.470932,34.938065 83.357086,33.092442 
	C83.005592,32.993042 83.004623,32.995354 83.001259,32.597740 
	C82.982780,31.140671 82.967667,30.081213 82.952553,29.021757 
	C83.405266,29.016520 83.857986,29.011284 84.650040,29.005180 
	C86.096588,31.600988 87.203781,34.197666 88.642151,36.898148 
	C88.980965,38.723408 88.988617,40.444859 88.983643,42.597450 
z"/>
<path fill="#F7D934" opacity="1.000000" stroke="none" 
	d="
M89.949638,46.722565 
	C89.529823,46.471790 89.075760,45.928558 88.795212,45.191647 
	C89.284286,45.475342 89.599838,45.952721 89.949638,46.722565 
z"/>
<path fill="#F7D934" opacity="1.000000" stroke="none" 
	d="
M98.213699,82.874176 
	C97.902817,82.472122 97.772202,81.890862 97.827942,81.132660 
	C98.140862,81.535477 98.267410,82.115227 98.213699,82.874176 
z"/>
<path fill="#DAC12F" opacity="1.000000" stroke="none" 
	d="
M83.014633,32.986282 
	C85.970055,45.065048 88.916428,57.150578 91.527451,69.549667 
	C86.379189,68.539825 81.600044,67.062050 76.730682,65.996674 
	C75.440536,65.714394 73.373337,66.279121 72.574272,67.224899 
	C71.790054,68.153091 71.491959,70.778442 72.158470,71.404076 
	C74.138725,73.262878 76.698898,74.503868 79.042343,76.352417 
	C79.397377,78.082932 79.742477,79.447372 80.084023,81.166946 
	C80.723000,82.348419 81.365524,83.174759 82.008049,84.001106 
	C82.005157,85.068878 82.002266,86.136650 81.998886,87.605049 
	C80.187599,88.066765 78.376785,88.127846 76.216034,88.196472 
	C75.866104,88.204018 75.900810,88.136436 75.724457,87.870316 
	C72.544540,84.567093 69.379097,84.088570 65.999168,87.000015 
	C65.666832,82.717094 64.468025,79.179306 59.386532,78.496277 
	C58.606983,78.391487 57.238609,77.016182 57.364185,76.663696 
	C59.840805,69.712166 51.061699,65.797966 52.855495,58.785904 
	C54.439655,52.593323 54.790199,46.085159 56.193096,39.412903 
	C60.199322,42.444508 63.706432,45.770653 67.191139,49.120090 
	C68.216644,50.105789 68.995934,51.547874 70.201134,52.112144 
	C75.776390,54.722477 80.129822,51.795139 79.949677,45.499184 
	C79.829239,41.289879 79.248734,37.093739 78.830589,32.403534 
	C80.783035,32.680363 81.893829,32.837860 83.004623,32.995354 
	C83.004623,32.995354 83.005592,32.993042 83.014633,32.986282 
z"/>
<path fill="#D1B932" opacity="1.000000" stroke="none" 
	d="
M64.092072,95.085098 
	C64.166306,94.915123 64.335358,94.879723 64.750793,94.924324 
	C64.997169,95.004333 64.632622,95.309349 64.632622,95.309349 
	C64.632622,95.309349 64.186905,95.219666 64.092072,95.085098 
z"/>
<path fill="#DEC02C" opacity="1.000000" stroke="none" 
	d="
M83.001259,32.597740 
	C81.893829,32.837860 80.783035,32.680363 78.830589,32.403534 
	C79.248734,37.093739 79.829239,41.289879 79.949677,45.499184 
	C80.129822,51.795139 75.776390,54.722477 70.201134,52.112144 
	C68.995934,51.547874 68.216644,50.105789 67.191139,49.120090 
	C63.706432,45.770653 60.199322,42.444508 56.352135,39.056183 
	C55.852501,38.716301 55.651775,38.470284 55.396317,37.919285 
	C55.928051,37.382526 56.464787,37.191322 57.001526,37.000114 
	C64.171181,38.466499 74.547279,33.838909 78.021866,27.272968 
	C79.493462,27.494831 80.931877,28.083870 82.661423,28.847332 
	C82.967667,30.081213 82.982780,31.140671 83.001259,32.597740 
z"/>
<path fill="#D5B426" opacity="1.000000" stroke="none" 
	d="
M57.014496,36.628227 
	C56.464787,37.191322 55.928051,37.382526 55.196400,37.787666 
	C53.752480,40.221706 52.610020,42.511509 51.218597,44.638447 
	C50.220085,46.164787 48.888767,47.473408 47.103680,48.940636 
	C46.333443,49.001991 46.165443,49.001862 45.997444,49.001732 
	C46.732891,44.055676 47.666599,39.129082 48.154438,34.158722 
	C48.787983,27.703861 52.154881,23.858421 58.675980,22.190510 
	C58.345291,26.794748 57.686378,31.525547 57.014496,36.628227 
z"/>
<path fill="#CBB22B" opacity="1.000000" stroke="none" 
	d="
M45.758522,49.257950 
	C46.165443,49.001862 46.333443,49.001991 46.753506,49.003426 
	C46.367844,51.401073 45.824482,53.827511 45.071922,56.187233 
	C43.685429,60.534725 44.214725,64.238312 47.007084,66.048431 
	C47.007084,68.733360 47.007084,70.289993 46.655602,72.267715 
	C44.904377,73.545181 43.504635,74.401558 42.104893,75.257935 
	C39.170193,66.136436 41.411732,57.701527 45.758522,49.257950 
z"/>
<path fill="#171309" opacity="1.000000" stroke="none" 
	d="
M42.101204,75.455780 
	C43.504635,74.401558 44.904377,73.545181 46.655930,72.581902 
	C48.306744,74.499657 49.778496,76.451195 50.702553,78.634544 
	C50.828728,78.932663 48.222431,80.387253 46.535004,81.340515 
	C45.799942,81.177299 45.411140,80.979980 44.589142,80.516418 
	C43.409054,78.835091 42.662170,77.420013 41.915283,76.004929 
	C41.915283,76.004929 42.097511,75.653625 42.101204,75.455780 
z"/>
<path fill="#D6C033" opacity="1.000000" stroke="none" 
	d="
M65.799316,87.131752 
	C69.379097,84.088570 72.544540,84.567093 75.742508,87.903534 
	C72.601952,88.627686 69.266998,89.052490 65.491173,89.105560 
	C65.032829,88.489830 65.015343,88.245827 64.997864,88.001831 
	C65.148537,87.715096 65.349068,87.468987 65.799316,87.131752 
z"/>
<path fill="#D1B932" opacity="1.000000" stroke="none" 
	d="
M59.680538,88.101166 
	C58.188858,88.308571 56.545902,88.209404 54.491425,88.153679 
	C55.666821,84.955688 57.624653,86.735374 59.680538,88.101166 
z"/>
<path fill="#D1B932" opacity="1.000000" stroke="none" 
	d="
M64.566208,88.001686 
	C65.015343,88.245827 65.032829,88.489830 65.069901,89.100662 
	C63.479660,89.214012 61.869823,88.960526 60.033699,88.479645 
	C61.249790,88.168678 62.692165,88.085106 64.566208,88.001686 
z"/>
<path fill="#CEB52B" opacity="1.000000" stroke="none" 
	d="
M53.489464,82.484329 
	C53.514008,82.474052 53.464924,82.494598 53.489464,82.484329 
z"/>
<path fill="#CBB22B" opacity="1.000000" stroke="none" 
	d="
M42.939518,98.652176 
	C34.427612,95.492897 33.403389,89.057762 40.657928,82.084503 
	C40.376289,85.187370 39.114708,88.424713 39.348530,91.550179 
	C39.522598,93.876907 41.632809,96.058784 42.939518,98.652176 
z"/>
<path fill="#CBB22B" opacity="1.000000" stroke="none" 
	d="
M41.597511,76.101265 
	C42.662170,77.420013 43.409054,78.835091 44.368980,80.541939 
	C43.686249,80.883896 42.790478,80.934090 41.447025,80.990417 
	C41.092808,79.396896 41.186272,77.797249 41.597511,76.101265 
z"/>
<path fill="#D3BB30" opacity="1.000000" stroke="none" 
	d="
M48.838257,88.557663 
	C48.882683,88.425217 48.975231,88.382446 49.067780,88.339668 
	C49.007313,88.442223 48.946842,88.544785 48.838257,88.557663 
z"/>
<path fill="#CFB32B" opacity="1.000000" stroke="none" 
	d="
M82.378014,84.024498 
	C81.365524,83.174759 80.723000,82.348419 80.486313,81.237610 
	C84.380882,81.865974 86.575165,80.365875 86.808174,76.961952 
	C87.089600,72.850883 83.951782,72.835503 81.096420,72.631142 
	C85.846123,70.295349 88.064537,71.679039 88.734123,76.024742 
	C88.966797,77.534805 91.502159,78.690071 92.985825,80.007378 
	C93.315735,81.107750 93.645645,82.208122 93.981308,83.657455 
	C93.577637,85.959885 93.234940,87.930519 92.738152,89.861511 
	C92.323425,91.473549 91.728195,93.039162 91.212898,94.625328 
	C89.795593,93.532074 88.064514,92.673309 87.032387,91.292206 
	C85.362686,89.057953 84.152313,86.480446 82.378014,84.024498 
z"/>
<path fill="#D9BA27" opacity="1.000000" stroke="none" 
	d="
M92.991234,79.584793 
	C91.502159,78.690071 88.966797,77.534805 88.734123,76.024742 
	C88.064537,71.679039 85.846123,70.295349 80.984306,72.911575 
	C80.188118,74.351707 79.610260,75.169022 79.032410,75.986336 
	C76.698898,74.503868 74.138725,73.262878 72.158470,71.404076 
	C71.491959,70.778442 71.790054,68.153091 72.574272,67.224899 
	C73.373337,66.279121 75.440536,65.714394 76.730682,65.996674 
	C81.600044,67.062050 86.379189,68.539825 91.588753,69.934723 
	C92.322479,73.058205 92.659561,76.110207 92.991234,79.584793 
z"/>
<path fill="#19150D" opacity="1.000000" stroke="none" 
	d="
M79.042343,76.352417 
	C79.610260,75.169022 80.188118,74.351707 80.878090,73.253967 
	C83.951782,72.835503 87.089600,72.850883 86.808174,76.961952 
	C86.575165,80.365875 84.380882,81.865974 80.489861,80.882477 
	C79.742477,79.447372 79.397377,78.082932 79.042343,76.352417 
z"/>
</svg>